<svg width="14" height="18" viewBox="0 0 14 18" fill="none" xmlns="http://www.w3.org/2000/svg">
<path d="M7 1.5C5.67392 1.5 4.40215 2.02678 3.46447 2.96447C2.52678 3.90215 2 5.17392 2 6.5C2 7.628 2.67 8.944 3.61 10.21C4.536 11.456 5.657 12.57 6.428 13.277C6.58286 13.4226 6.78743 13.5037 7 13.5037C7.21257 13.5037 7.41714 13.4226 7.572 13.277C8.342 12.569 9.464 11.457 10.39 10.21C11.33 8.944 12 7.628 12 6.5C12 5.17392 11.4732 3.90215 10.5355 2.96447C9.59785 2.02678 8.32608 1.5 7 1.5ZM1 6.5C1 4.9087 1.63214 3.38258 2.75736 2.25736C3.88258 1.13214 5.4087 0.5 7 0.5C8.5913 0.5 10.1174 1.13214 11.2426 2.25736C12.3679 3.38258 13 4.9087 13 6.5C13 7.968 12.157 9.507 11.193 10.806C10.213 12.125 9.041 13.286 8.248 14.013C7.90866 14.3278 7.46288 14.5027 7 14.5027C6.53712 14.5027 6.09134 14.3278 5.752 14.013C4.959 13.286 3.786 12.125 2.807 10.806C1.843 9.507 1 7.968 1 6.5ZM7 5C6.60218 5 6.22064 5.15804 5.93934 5.43934C5.65804 5.72064 5.5 6.10218 5.5 6.5C5.5 6.89782 5.65804 7.27936 5.93934 7.56066C6.22064 7.84196 6.60218 8 7 8C7.39782 8 7.77936 7.84196 8.06066 7.56066C8.34196 7.27936 8.5 6.89782 8.5 6.5C8.5 6.10218 8.34196 5.72064 8.06066 5.43934C7.77936 5.15804 7.39782 5 7 5ZM4.5 6.5C4.5 5.83696 4.76339 5.20107 5.23223 4.73223C5.70107 4.26339 6.33696 4 7 4C7.66304 4 8.29893 4.26339 8.76777 4.73223C9.23661 5.20107 9.5 5.83696 9.5 6.5C9.5 7.16304 9.23661 7.79893 8.76777 8.26777C8.29893 8.73661 7.66304 9 7 9C6.33696 9 5.70107 8.73661 5.23223 8.26777C4.76339 7.79893 4.5 7.16304 4.5 6.5ZM11.42 12.138C11.1882 12.419 10.9498 12.6944 10.705 12.964C10.9597 13.036 11.197 13.1143 11.417 13.199C11.971 13.412 12.386 13.654 12.653 13.897C12.92 14.14 13 14.344 13 14.5C13 14.656 12.92 14.86 12.653 15.103C12.386 15.346 11.971 15.588 11.417 15.801C10.311 16.227 8.75 16.501 7 16.501C5.25 16.501 3.689 16.227 2.583 15.801C2.029 15.588 1.614 15.346 1.347 15.103C1.08 14.86 1 14.656 1 14.5C1 14.344 1.08 14.14 1.347 13.897C1.614 13.654 2.029 13.412 2.583 13.199C2.81653 13.1096 3.05412 13.0312 3.295 12.964C3.04987 12.6946 2.81146 12.4192 2.58 12.138C2.46045 12.1782 2.34176 12.2208 2.224 12.266C1.603 12.505 1.065 12.802 0.674 13.157C0.284 13.512 0 13.966 0 14.5C0 15.035 0.284 15.488 0.674 15.843C1.064 16.198 1.603 16.495 2.224 16.735C3.471 17.215 5.16 17.5 7 17.5C8.84 17.5 10.529 17.214 11.776 16.735C12.397 16.495 12.935 16.198 13.326 15.843C13.716 15.488 14 15.035 14 14.5C14 13.965 13.716 13.512 13.326 13.157C12.936 12.802 12.397 12.505 11.776 12.266C11.6582 12.2208 11.5396 12.1782 11.42 12.138Z" fill="black"/>
</svg>
