<svg width="40" height="40" viewBox="0 0 40 40" fill="none" xmlns="http://www.w3.org/2000/svg">
<path d="M29.3235 21.0417C29.338 19.766 29.6763 18.5149 30.3065 17.4057C30.9368 16.2965 31.8384 15.3655 32.9269 14.7C32.2354 13.7151 31.325 12.9038 30.2672 12.3301C29.2094 11.7563 28.0329 11.4357 26.8302 11.3934C24.2335 11.13 21.7635 12.9217 20.4469 12.9217C19.1319 12.9217 17.1002 11.4317 14.9469 11.4717C13.5337 11.5121 12.1552 11.9188 10.9463 12.6517C9.73739 13.3847 8.73947 14.419 8.05019 15.6534C5.11186 20.7534 7.30019 28.3084 10.1619 32.4467C11.5619 34.47 13.2335 36.7484 15.4252 36.6667C17.5385 36.5834 18.3352 35.3 20.8869 35.3C23.4369 35.3 24.1552 36.6667 26.3869 36.625C28.6602 36.5834 30.1019 34.56 31.4902 32.53C32.4835 31.0689 33.2605 29.4718 33.7969 27.7884C32.4742 27.2235 31.3458 26.2838 30.5509 25.0852C29.756 23.8866 29.3293 22.4816 29.3235 21.0434V21.0417Z" fill="black"/>
<path d="M25.3601 8.39996C26.9561 6.53543 27.7474 4.11385 27.5601 1.66663C25.1549 1.89927 22.9303 3.04439 21.3434 4.86663L21.3101 4.94496C19.714 6.80949 18.9227 9.23107 19.1101 11.6783C21.5152 11.4457 23.7398 10.3005 25.3267 8.47829L25.3601 8.39996Z" fill="black"/>
</svg>
