<svg width="23" height="27" viewBox="0 0 23 27" fill="none" xmlns="http://www.w3.org/2000/svg">
<path d="M8.75244 23.75H13.7524C13.7524 25.125 12.6274 26.25 11.2524 26.25C9.87744 26.25 8.75244 25.125 8.75244 23.75ZM22.5024 21.25V22.5H0.00244141V21.25L2.50244 18.75V11.25C2.50244 7.375 5.00244 4 8.75244 2.875V2.5C8.75244 1.125 9.87744 0 11.2524 0C12.6274 0 13.7524 1.125 13.7524 2.5V2.875C17.5024 4 20.0024 7.375 20.0024 11.25V18.75L22.5024 21.25ZM17.5024 11.25C17.5024 7.75 14.7524 5 11.2524 5C7.75244 5 5.00244 7.75 5.00244 11.25V20H17.5024V11.25Z" fill="black"/>
</svg>
