<svg width="24" height="25" viewBox="0 0 24 25" fill="none" xmlns="http://www.w3.org/2000/svg">
<path d="M0.200195 1.4496C0.200195 1.22421 0.289732 1.00805 0.449107 0.848673C0.608482 0.689298 0.824641 0.599762 1.05003 0.599762H1.79449C3.03015 0.599762 3.74061 1.40371 4.15193 2.20595C4.43238 2.75495 4.63464 3.42462 4.80291 4.0059H22.301C22.5637 4.00598 22.8227 4.06692 23.0578 4.18393C23.2929 4.30095 23.4977 4.47086 23.6562 4.68033C23.8146 4.88979 23.9223 5.13312 23.9709 5.39122C24.0194 5.64932 24.0076 5.91516 23.9361 6.16789L21.3934 15.1337C21.1911 15.845 20.7624 16.471 20.1723 16.9166C19.5821 17.3623 18.8628 17.6034 18.1232 17.6033H9.4906C8.74492 17.6035 8.01983 17.3586 7.42706 16.9062C6.83429 16.4538 6.40672 15.819 6.21024 15.0997L5.11905 11.0969L5.10205 11.0425L3.35139 5.09709L3.18142 4.5243C3.01145 3.93622 2.86188 3.41612 2.63753 2.9793C2.36728 2.4524 2.11913 2.29943 1.79449 2.29943H1.05003C0.824641 2.29943 0.608482 2.2099 0.449107 2.05052C0.289732 1.89115 0.200195 1.67499 0.200195 1.4496ZM6.74053 10.5836L7.85042 14.656C7.94882 15.0156 8.16267 15.3328 8.45904 15.5588C8.75541 15.7848 9.11787 15.9072 9.4906 15.907H18.1249C18.4945 15.9066 18.8539 15.7858 19.1486 15.5628C19.4434 15.3399 19.6574 15.0269 19.7583 14.6713L22.301 5.70558H5.30431L6.74053 10.5836ZM12.103 21.8508C12.103 22.5269 11.8344 23.1754 11.3563 23.6535C10.8781 24.1317 10.2297 24.4003 9.55349 24.4003C8.87732 24.4003 8.22884 24.1317 7.75072 23.6535C7.27259 23.1754 7.00398 22.5269 7.00398 21.8508C7.00398 21.1746 7.27259 20.5261 7.75072 20.048C8.22884 19.5699 8.87732 19.3013 9.55349 19.3013C10.2297 19.3013 10.8781 19.5699 11.3563 20.048C11.8344 20.5261 12.103 21.1746 12.103 21.8508ZM10.4033 21.8508C10.4033 21.6254 10.3138 21.4092 10.1544 21.2498C9.99504 21.0905 9.77888 21.0009 9.55349 21.0009C9.3281 21.0009 9.11194 21.0905 8.95257 21.2498C8.79319 21.4092 8.70366 21.6254 8.70366 21.8508C8.70366 22.0762 8.79319 22.2923 8.95257 22.4517C9.11194 22.6111 9.3281 22.7006 9.55349 22.7006C9.77888 22.7006 9.99504 22.6111 10.1544 22.4517C10.3138 22.2923 10.4033 22.0762 10.4033 21.8508ZM20.6014 21.8508C20.6014 22.5269 20.3328 23.1754 19.8546 23.6535C19.3765 24.1317 18.728 24.4003 18.0519 24.4003C17.3757 24.4003 16.7272 24.1317 16.2491 23.6535C15.771 23.1754 15.5023 22.5269 15.5023 21.8508C15.5023 21.1746 15.771 20.5261 16.2491 20.048C16.7272 19.5699 17.3757 19.3013 18.0519 19.3013C18.728 19.3013 19.3765 19.5699 19.8546 20.048C20.3328 20.5261 20.6014 21.1746 20.6014 21.8508ZM18.9017 21.8508C18.9017 21.6254 18.8122 21.4092 18.6528 21.2498C18.4934 21.0905 18.2772 21.0009 18.0519 21.0009C17.8265 21.0009 17.6103 21.0905 17.4509 21.2498C17.2916 21.4092 17.202 21.6254 17.202 21.8508C17.202 22.0762 17.2916 22.2923 17.4509 22.4517C17.6103 22.6111 17.8265 22.7006 18.0519 22.7006C18.2772 22.7006 18.4934 22.6111 18.6528 22.4517C18.8122 22.2923 18.9017 22.0762 18.9017 21.8508Z" fill="black"/>
</svg>
