<svg width="26" height="25" viewBox="0 0 26 25" fill="none" xmlns="http://www.w3.org/2000/svg">
<path d="M20.5024 20C21.1655 20 21.8014 20.2634 22.2702 20.7322C22.739 21.2011 23.0024 21.837 23.0024 22.5C23.0024 23.163 22.739 23.7989 22.2702 24.2678C21.8014 24.7366 21.1655 25 20.5024 25C19.8394 25 19.2035 24.7366 18.7347 24.2678C18.2658 23.7989 18.0024 23.163 18.0024 22.5C18.0024 21.1125 19.1149 20 20.5024 20ZM0.502441 0H4.58994L5.76494 2.5H24.2524C24.584 2.5 24.9019 2.6317 25.1363 2.86612C25.3707 3.10054 25.5024 3.41848 25.5024 3.75C25.5024 3.9625 25.4399 4.175 25.3524 4.375L20.8774 12.4625C20.4524 13.225 19.6274 13.75 18.6899 13.75H9.37744L8.25244 15.7875L8.21494 15.9375C8.21494 16.0204 8.24787 16.0999 8.30647 16.1585C8.36508 16.2171 8.44456 16.25 8.52744 16.25H23.0024V18.75H8.00244C7.3394 18.75 6.70352 18.4866 6.23467 18.0178C5.76583 17.5489 5.50244 16.913 5.50244 16.25C5.50244 15.8125 5.61494 15.4 5.80244 15.05L7.50244 11.9875L3.00244 2.5H0.502441V0ZM8.00244 20C8.66548 20 9.30137 20.2634 9.77021 20.7322C10.239 21.2011 10.5024 21.837 10.5024 22.5C10.5024 23.163 10.239 23.7989 9.77021 24.2678C9.30137 24.7366 8.66548 25 8.00244 25C7.3394 25 6.70352 24.7366 6.23467 24.2678C5.76583 23.7989 5.50244 23.163 5.50244 22.5C5.50244 21.1125 6.61494 20 8.00244 20ZM19.2524 11.25L22.7274 5H6.92744L9.87744 11.25H19.2524Z" fill="black"/>
</svg>
