<?xml version="1.0" encoding="utf-8"?>
<!-- Generator: Adobe Illustrator 23.0.5, SVG Export Plug-In . SVG Version: 6.00 Build 0)  -->
<svg version="1.1" id="Layer_1" xmlns="http://www.w3.org/2000/svg" xmlns:xlink="http://www.w3.org/1999/xlink" x="0px" y="0px"
	 viewBox="0 0 16 16" style="enable-background:new 0 0 16 16;" xml:space="preserve">
<style type="text/css">
	.st0{fill:#FF6200;}
</style>
<g>
	<path class="st0" d="M12.9,12.9c1.4-1.3,2.1-3,2.1-4.9s-0.7-3.6-2.1-4.9C11.6,1.7,9.9,1,8,1C7.1,1,6.2,1.2,5.3,1.5
		C4.5,1.9,3.7,2.4,3.1,3.1C2.5,3.8,1.9,4.5,1.5,5.3C1.2,6.2,1,7.1,1,8s0.2,1.8,0.5,2.7C1.9,11.5,2.4,12.3,3,13
		c0.7,0.7,1.4,1.2,2.3,1.5C6.2,14.8,7.1,15,8,15C9.9,15,11.6,14.3,12.9,12.9z M7,10.4c-0.1,0-0.2,0-0.3-0.1l-0.1-0.1l-2-2
		c0,0.1-0.1,0-0.1-0.2c0-0.1,0-0.2,0.1-0.3c0.1-0.1,0.2-0.2,0.3-0.2c0.1,0,0.2,0,0.4,0.1l0.1,0.1L7,9.3l3.7-3.7
		c0.1-0.1,0.2-0.1,0.4-0.1c0,0,0.2,0.1,0.3,0.1c0.1,0.1,0.1,0.2,0.1,0.3c0,0.1,0,0.2-0.1,0.3l-0.1,0.1l-4,4
		C7.2,10.4,7.1,10.4,7,10.4z"/>
	<path class="st0" d="M16,8.9C16,8.8,16,8.8,16,8.9c0-0.3,0-0.6,0-0.9s0-0.5,0-0.8c0,0,0,0,0-0.1C15.5,3.4,12.6,0.5,8.9,0
		c0,0,0,0-0.1,0C8.5,0,8.3,0,8,0S7.5,0,7.2,0c0,0,0,0-0.1,0C3.4,0.5,0.5,3.4,0,7.1c0,0,0,0,0,0.1C0,7.5,0,7.7,0,8s0,0.5,0,0.8
		c0,0,0,0,0,0.1c0.4,3.7,3.4,6.7,7.1,7.1c0,0,0,0,0.1,0c0.3,0,0.5,0,0.8,0s0.5,0,0.8,0c0,0,0,0,0.1,0C12.6,15.5,15.5,12.6,16,8.9z
		 M5.3,14.5C4.4,14.2,3.7,13.7,3,13c-0.6-0.7-1.1-1.5-1.5-2.3C1.2,9.8,1,8.9,1,8s0.2-1.8,0.5-2.7c0.4-0.8,1-1.5,1.6-2.2
		c0.6-0.7,1.4-1.2,2.2-1.6C6.2,1.2,7.1,1,8,1c1.9,0,3.6,0.7,4.9,2.1C14.3,4.4,15,6.1,15,8s-0.7,3.6-2.1,4.9C11.6,14.3,9.9,15,8,15
		C7.1,15,6.2,14.8,5.3,14.5z"/>
</g>
</svg>
