<svg width="16" height="16" viewBox="0 0 16 16" fill="none" xmlns="http://www.w3.org/2000/svg">
<path d="M15.1809 0.927015C14.9074 0.639389 14.5791 0.409404 14.2153 0.250606C13.8516 0.0918082 13.4597 0.00740747 13.0628 0.00237535C12.6659 -0.00265677 12.2721 0.0717815 11.9044 0.221306C11.5367 0.37083 11.2027 0.592416 10.9219 0.873015L1.54693 10.248C1.21934 10.5757 0.991803 10.9898 0.890934 11.442L0.0139339 15.392C-0.00436644 15.4741 -0.00166534 15.5595 0.0217869 15.6402C0.0452391 15.721 0.0886847 15.7946 0.148103 15.8541C0.207522 15.9136 0.280994 15.9572 0.36172 15.9807C0.442446 16.0043 0.527817 16.0072 0.609934 15.989L4.53693 15.116C5.00473 15.0129 5.43305 14.7776 5.77093 14.438L15.1289 5.08002C15.6774 4.53126 15.9899 3.78992 15.9996 3.01409C16.0093 2.23826 15.7155 1.48934 15.1809 0.927015ZM11.6289 1.58002C11.8118 1.39446 12.0297 1.24693 12.2698 1.14593C12.51 1.04493 12.7678 0.992449 13.0284 0.991515C13.2889 0.990581 13.5471 1.04121 13.788 1.14049C14.0289 1.23977 14.2477 1.38573 14.432 1.56997C14.6162 1.75421 14.7622 1.97308 14.8615 2.21397C14.9607 2.45487 15.0114 2.71303 15.0104 2.97358C15.0095 3.23413 14.957 3.49192 14.856 3.7321C14.755 3.97228 14.6075 4.1901 14.4219 4.37302L13.7509 5.04402L10.9579 2.25202L11.6289 1.58002ZM10.2509 2.96002L13.0439 5.75202L5.06393 13.732C4.8605 13.9372 4.60215 14.0792 4.31993 14.141L1.15993 14.843L1.86793 11.66C1.92693 11.393 2.06093 11.149 2.25393 10.956L10.2509 2.96002Z" fill="#FF6200"/>
</svg>
