<svg width="21" height="20" viewBox="0 0 21 20" fill="none" xmlns="http://www.w3.org/2000/svg">
<path d="M19.5 9.99949H7.145M2.784 9.99949H1M2.784 9.99949C2.784 9.42132 3.01368 8.86683 3.42251 8.458C3.83134 8.04917 4.38583 7.81949 4.964 7.81949C5.54217 7.81949 6.09666 8.04917 6.50549 8.458C6.91432 8.86683 7.144 9.42132 7.144 9.99949C7.144 10.5777 6.91432 11.1322 6.50549 11.541C6.09666 11.9498 5.54217 12.1795 4.964 12.1795C4.38583 12.1795 3.83134 11.9498 3.42251 11.541C3.01368 11.1322 2.784 10.5777 2.784 9.99949ZM19.5 16.6065H13.752M13.752 16.6065C13.752 17.1848 13.5218 17.7399 13.1128 18.1488C12.7039 18.5578 12.1493 18.7875 11.571 18.7875C10.9928 18.7875 10.4383 18.5568 10.0295 18.148C9.62068 17.7392 9.391 17.1847 9.391 16.6065M13.752 16.6065C13.752 16.0282 13.5218 15.4741 13.1128 15.0651C12.7039 14.6562 12.1493 14.4265 11.571 14.4265C10.9928 14.4265 10.4383 14.6562 10.0295 15.065C9.62068 15.4738 9.391 16.0283 9.391 16.6065M9.391 16.6065H1M19.5 3.39249H16.395M12.034 3.39249H1M12.034 3.39249C12.034 2.81432 12.2637 2.25983 12.6725 1.851C13.0813 1.44217 13.6358 1.21249 14.214 1.21249C14.5003 1.21249 14.7838 1.26888 15.0483 1.37844C15.3127 1.48799 15.5531 1.64857 15.7555 1.851C15.9579 2.05343 16.1185 2.29375 16.2281 2.55824C16.3376 2.82273 16.394 3.10621 16.394 3.39249C16.394 3.67878 16.3376 3.96225 16.2281 4.22674C16.1185 4.49123 15.9579 4.73155 15.7555 4.93399C15.5531 5.13642 15.3127 5.297 15.0483 5.40655C14.7838 5.51611 14.5003 5.57249 14.214 5.57249C13.6358 5.57249 13.0813 5.34282 12.6725 4.93399C12.2637 4.52516 12.034 3.97067 12.034 3.39249Z" stroke="black" stroke-width="1.5" stroke-miterlimit="10" stroke-linecap="round"/>
</svg>
