<svg width="34" height="34" viewBox="0 0 34 34" fill="none" xmlns="http://www.w3.org/2000/svg">
<path d="M33.3427 13.7359H32.0002V13.6667H17.0002V20.3334H26.4193C25.0452 24.2142 21.3527 27 17.0002 27C11.4777 27 7.00016 22.5225 7.00016 17C7.00016 11.4775 11.4777 7.00004 17.0002 7.00004C19.5493 7.00004 21.8685 7.96171 23.6343 9.53254L28.3485 4.81837C25.3718 2.04421 21.3902 0.333374 17.0002 0.333374C7.796 0.333374 0.333496 7.79587 0.333496 17C0.333496 26.2042 7.796 33.6667 17.0002 33.6667C26.2043 33.6667 33.6668 26.2042 33.6668 17C33.6668 15.8825 33.5518 14.7917 33.3427 13.7359Z" fill="#FFC107"/>
<path d="M2.25537 9.24254L7.7312 13.2584C9.21287 9.59004 12.8012 7.00004 17.0004 7.00004C19.5495 7.00004 21.8687 7.96171 23.6345 9.53254L28.3487 4.81837C25.372 2.04421 21.3904 0.333374 17.0004 0.333374C10.5987 0.333374 5.04704 3.94754 2.25537 9.24254Z" fill="#FF3D00"/>
<path d="M17.0001 33.6667C21.3051 33.6667 25.2168 32.0192 28.1743 29.3401L23.0159 24.9751C21.2867 26.291 19.1731 27.0024 17.0001 27.0001C12.6651 27.0001 8.98426 24.2359 7.5976 20.3784L2.1626 24.5659C4.92093 29.9634 10.5226 33.6667 17.0001 33.6667Z" fill="#4CAF50"/>
<path d="M33.3425 13.7359H32V13.6667H17V20.3334H26.4192C25.7618 22.1804 24.5778 23.7944 23.0133 24.9759L23.0158 24.9742L28.1742 29.3392C27.8092 29.6709 33.6667 25.3334 33.6667 17.0001C33.6667 15.8826 33.5517 14.7917 33.3425 13.7359Z" fill="#1976D2"/>
</svg>
