<svg width="26" height="24" viewBox="0 0 26 24" fill="none" xmlns="http://www.w3.org/2000/svg">
<path d="M12.7524 5.33333C12.7524 5.33333 12.7524 5.33333 11.7708 4.04167C10.6341 2.54333 8.95494 1.45833 6.93994 1.45833C3.72369 1.45833 1.12744 4.05458 1.12744 7.27083C1.12744 8.47208 1.48911 9.58292 2.10911 10.5C3.15536 12.0629 12.7524 22.125 12.7524 22.125M12.7524 5.33333C12.7524 5.33333 12.7524 5.33333 13.7341 4.04167C14.8708 2.54333 16.5499 1.45833 18.5649 1.45833C21.7812 1.45833 24.3774 4.05458 24.3774 7.27083C24.3774 8.47208 24.0158 9.58292 23.3958 10.5C22.3495 12.0629 12.7524 22.125 12.7524 22.125" stroke="black" stroke-width="2" stroke-linecap="round" stroke-linejoin="round"/>
</svg>
