<svg width="24" height="18" viewBox="0 0 24 18" fill="none" xmlns="http://www.w3.org/2000/svg">
<path d="M23.7188 9C23.7188 9.37296 23.5706 9.73065 23.3069 9.99437C23.0431 10.2581 22.6855 10.4062 22.3125 10.4062H1.6875C1.31454 10.4062 0.956854 10.2581 0.693131 9.99437C0.429408 9.73065 0.28125 9.37296 0.28125 9C0.28125 8.62704 0.429408 8.26935 0.693131 8.00563C0.956854 7.74191 1.31454 7.59375 1.6875 7.59375H22.3125C22.6855 7.59375 23.0431 7.74191 23.3069 8.00563C23.5706 8.26935 23.7188 8.62704 23.7188 9ZM1.6875 2.90625H22.3125C22.6855 2.90625 23.0431 2.75809 23.3069 2.49437C23.5706 2.23065 23.7188 1.87296 23.7188 1.5C23.7188 1.12704 23.5706 0.769354 23.3069 0.505631C23.0431 0.241908 22.6855 0.09375 22.3125 0.09375H1.6875C1.31454 0.09375 0.956854 0.241908 0.693131 0.505631C0.429408 0.769354 0.28125 1.12704 0.28125 1.5C0.28125 1.87296 0.429408 2.23065 0.693131 2.49437C0.956854 2.75809 1.31454 2.90625 1.6875 2.90625ZM22.3125 15.0938H1.6875C1.31454 15.0938 0.956854 15.2419 0.693131 15.5056C0.429408 15.7694 0.28125 16.127 0.28125 16.5C0.28125 16.873 0.429408 17.2306 0.693131 17.4944C0.956854 17.7581 1.31454 17.9062 1.6875 17.9062H22.3125C22.6855 17.9062 23.0431 17.7581 23.3069 17.4944C23.5706 17.2306 23.7188 16.873 23.7188 16.5C23.7188 16.127 23.5706 15.7694 23.3069 15.5056C23.0431 15.2419 22.6855 15.0938 22.3125 15.0938Z" fill="black"/>
</svg>
