<svg width="53" height="21" viewBox="0 0 53 21" fill="none" xmlns="http://www.w3.org/2000/svg">
<path d="M25.9618 6.71346C25.9299 9.63884 28.2069 11.2712 29.9221 12.2419C31.6843 13.2377 32.2763 13.8763 32.2693 14.7669C32.2562 16.1298 30.8636 16.7313 29.5605 16.7547C27.287 16.7956 25.9651 16.0419 24.9142 15.4718L24.0952 19.9222C25.1496 20.4864 27.102 20.9784 29.1265 21C33.8788 21 36.9879 18.2758 37.0048 14.0521C37.0234 8.69157 30.6199 8.39487 30.6637 5.99887C30.6788 5.27235 31.2757 4.49706 32.5838 4.29993C33.2313 4.20036 35.0187 4.12415 37.0452 5.20783L37.8406 0.902054C36.7508 0.441246 35.3502 0 33.6063 0C29.1333 0 25.9872 2.76129 25.9618 6.71346ZM45.4833 0.37088C44.6155 0.37088 43.8843 0.9587 43.5579 1.86075L36.7694 20.6837H41.5182L42.4632 17.6509H48.2663L48.8144 20.6837H53L49.3475 0.37088H45.4833ZM46.1477 5.85814L47.5181 13.4858H43.7648L46.1477 5.85814ZM20.2041 0.371134L16.4609 20.6835H20.9862L24.7277 0.370626L20.2041 0.371134ZM13.5097 0.371134L8.79959 14.1966L6.89428 2.44096C6.67072 1.12865 5.78784 0.37088 4.80741 0.37088H-2.89216L-3 0.960733C-1.41931 1.35905 0.376625 2.00149 1.46469 2.68889C2.13056 3.1088 2.32044 3.47587 2.53919 4.47369L6.14791 20.6837H10.93L18.2616 0.37088L13.5097 0.371134Z" fill="url(#paint0_linear_94_313)"/>
<defs>
<linearGradient id="paint0_linear_94_313" x1="2571.54" y1="63.126" x2="2642.11" y2="-2093.01" gradientUnits="userSpaceOnUse">
<stop stop-color="#222357"/>
<stop offset="1" stop-color="#254AA5"/>
</linearGradient>
</defs>
</svg>
