<svg width="27" height="31" viewBox="0 0 27 31" fill="none" xmlns="http://www.w3.org/2000/svg">
<g>
<path d="M22.2924 2.41295C20.8621 0.782677 18.2766 0.0837403 14.9689 0.0837403H5.36917C5.04189 0.0836898 4.72534 0.200423 4.47644 0.412941C4.22755 0.625459 4.06266 0.919814 4.01143 1.24306L0.0142789 26.594C-0.0651714 27.0939 0.321918 27.5466 0.828593 27.5466H6.75514L8.24355 18.1058L8.19736 18.4015C8.30339 17.7341 8.87412 17.2419 9.54996 17.2419H12.3662C17.8988 17.2419 22.2309 14.9947 23.4964 8.49408C23.5339 8.30182 23.5665 8.11469 23.5946 7.93187C23.4349 7.84729 23.4349 7.84729 23.5946 7.93187C23.9714 5.52917 23.592 3.89366 22.2924 2.41295Z" fill="#27346A"/>
<path d="M10.5113 7.06634C10.6733 6.98906 10.8505 6.94908 11.03 6.94932H18.556C19.4472 6.94932 20.2784 7.00731 21.038 7.12957C21.2506 7.16348 21.462 7.20395 21.6721 7.2509C21.9698 7.31661 22.2641 7.39701 22.5538 7.49182C22.9273 7.61653 23.2751 7.76178 23.5947 7.93187C23.9714 5.52824 23.592 3.89366 22.2924 2.41295C20.8613 0.782677 18.2766 0.0837402 14.9689 0.0837402H5.36835C4.69241 0.0837402 4.11737 0.57584 4.01143 1.24306L0.0142795 26.593C-0.0651708 27.0938 0.321919 27.5458 0.827773 27.5458H6.75514L9.84313 7.96349C9.87352 7.77102 9.9502 7.58881 10.0666 7.43253C10.183 7.27626 10.3356 7.15059 10.5113 7.06634Z" fill="#27346A"/>
<path d="M23.1596 8.56221C21.8941 15.0619 17.5621 17.3101 12.0295 17.3101H9.21237C8.53653 17.3101 7.9657 17.8023 7.86069 18.4696L6.009 30.208C5.93982 30.6455 6.27815 31.0419 6.72077 31.0419H11.7167C12.0029 31.0419 12.2796 30.9397 12.4972 30.7538C12.7148 30.5679 12.8589 30.3104 12.9036 30.0278L12.9523 29.7732L13.8939 23.8056L13.9545 23.4758C13.9993 23.1931 14.1434 22.9357 14.3609 22.7498C14.5785 22.5639 14.8552 22.4617 15.1414 22.4616H15.8891C20.7287 22.4616 24.5182 20.4955 25.6255 14.8091C26.0878 12.4328 25.8486 10.4488 24.6258 9.05523C24.255 8.63314 23.7944 8.28454 23.2578 8C23.2288 8.18374 23.1973 8.36995 23.1596 8.56221Z" fill="#2790C3"/>
<path d="M22.2698 7.40385C22.0725 7.34624 21.8733 7.29523 21.6726 7.25091C21.4624 7.2047 21.251 7.16452 21.0385 7.1304C20.2781 7.00732 19.4475 6.94922 18.5554 6.94922H11.0304C10.8508 6.94892 10.6735 6.98924 10.5117 7.06716C10.3357 7.15112 10.1829 7.2767 10.0665 7.43303C9.95005 7.58935 9.87348 7.77172 9.84342 7.96432L8.24395 18.1058L8.19775 18.4015C8.30297 17.7341 8.8737 17.2419 9.54964 17.2419H12.3667C17.8993 17.2419 22.2313 14.9947 23.4968 8.49409C23.5344 8.30183 23.5661 8.11552 23.5951 7.93188C23.2747 7.76285 22.9278 7.61644 22.5542 7.49264C22.46 7.46139 22.3652 7.43179 22.2699 7.40385" fill="#1F264F"/>
</g>
</svg>
