<svg width="9" height="11" viewBox="0 0 9 11" fill="none" xmlns="http://www.w3.org/2000/svg">
<path d="M7.5 10.5C7.0875 10.5 6.7345 10.3533 6.441 10.0598C6.1475 9.76625 6.0005 9.413 6 9V1.5C6 1.0875 6.147 0.734501 6.441 0.441001C6.735 0.147501 7.088 0.000501271 7.5 1.27119e-06C7.912 -0.000498729 8.26525 0.146501 8.55975 0.441001C8.85425 0.735501 9.001 1.0885 9 1.5V9C9 9.4125 8.85325 9.76575 8.55975 10.0598C8.26625 10.3538 7.913 10.5005 7.5 10.5ZM1.5 10.5C1.0875 10.5 0.7345 10.3533 0.441 10.0598C0.1475 9.76625 0.0005 9.413 0 9V1.5C0 1.0875 0.147 0.734501 0.441 0.441001C0.735 0.147501 1.088 0.000501271 1.5 1.27119e-06C1.912 -0.000498729 2.26525 0.146501 2.55975 0.441001C2.85425 0.735501 3.001 1.0885 3 1.5V9C3 9.4125 2.85325 9.76575 2.55975 10.0598C2.26625 10.3538 1.913 10.5005 1.5 10.5Z" fill="black"/>
</svg>
