<svg width="17" height="18" viewBox="0 0 17 18" fill="none" xmlns="http://www.w3.org/2000/svg">
<path d="M4.50104 5.5C4.50104 5.36739 4.55372 5.24022 4.64749 5.14645C4.74126 5.05268 4.86844 5 5.00104 5H8.00104C8.13365 5 8.26083 5.05268 8.3546 5.14645C8.44837 5.24022 8.50104 5.36739 8.50104 5.5C8.50104 5.63261 8.44837 5.75979 8.3546 5.85355C8.26083 5.94732 8.13365 6 8.00104 6H5.00104C4.86844 6 4.74126 5.94732 4.64749 5.85355C4.55372 5.75979 4.50104 5.63261 4.50104 5.5ZM5.00104 7C4.86844 7 4.74126 7.05268 4.64749 7.14645C4.55372 7.24022 4.50104 7.36739 4.50104 7.5C4.50104 7.63261 4.55372 7.75979 4.64749 7.85355C4.74126 7.94732 4.86844 8 5.00104 8H7.00104C7.13365 8 7.26083 7.94732 7.3546 7.85355C7.44837 7.75979 7.50104 7.63261 7.50104 7.5C7.50104 7.36739 7.44837 7.24022 7.3546 7.14645C7.26083 7.05268 7.13365 7 7.00104 7H5.00104ZM6.50104 0.5C5.46009 0.49965 4.43696 0.770125 3.53217 1.28485C2.62739 1.79957 1.87208 2.54083 1.34047 3.4358C0.808856 4.33077 0.519228 5.34864 0.500043 6.38942C0.480858 7.43019 0.732775 8.45805 1.23104 9.372L0.521044 11.862C0.496061 11.9494 0.495395 12.042 0.519119 12.1298C0.542842 12.2176 0.590056 12.2972 0.655679 12.3602C0.721302 12.4231 0.802849 12.467 0.891544 12.4871C0.980239 12.5071 1.07272 12.5026 1.15904 12.474L3.49704 11.695C4.2939 12.1555 5.18601 12.4265 6.10436 12.487C7.0227 12.5475 7.94267 12.396 8.79308 12.0441C9.64349 11.6922 10.4016 11.1494 11.0086 10.4577C11.6157 9.766 12.0555 8.94389 12.294 8.055C12.5326 7.1661 12.5634 6.23425 12.3842 5.33153C12.2049 4.42882 11.8204 3.57943 11.2604 2.84908C10.7004 2.11873 9.97989 1.527 9.1546 1.11967C8.32931 0.712331 7.42138 0.500308 6.50104 0.5ZM1.50104 6.5C1.50121 5.3906 1.87033 4.31277 2.55029 3.43618C3.23025 2.55959 4.18244 1.93403 5.25695 1.65799C6.33145 1.38195 7.46725 1.47111 8.48552 1.91142C9.5038 2.35174 10.3467 3.1182 10.8816 4.09015C11.4164 5.0621 11.6129 6.18433 11.4399 7.28016C11.267 8.376 10.7345 9.3832 9.92632 10.1432C9.11813 10.9032 8.08014 11.3728 6.97576 11.4782C5.87137 11.5835 4.76332 11.3185 3.82604 10.725C3.76335 10.6853 3.69259 10.66 3.61891 10.651C3.54522 10.642 3.47046 10.6495 3.40004 10.673L1.74204 11.226L2.25204 9.445C2.27063 9.37941 2.2756 9.31071 2.26666 9.24313C2.25771 9.17554 2.23505 9.1105 2.20004 9.052C1.7421 8.27954 1.50065 7.398 1.50104 6.5ZM10.777 14.447L8.37504 13.247C8.81638 13.1237 9.23738 12.961 9.63804 12.759L11.001 13.441L15.501 11.191V10.5C15.501 10.2348 15.3957 9.98043 15.2082 9.79289C15.0206 9.60536 14.7663 9.5 14.501 9.5H12.827C12.9804 9.17933 13.1084 8.846 13.211 8.5H14.501C15.0315 8.5 15.5402 8.71071 15.9153 9.08579C16.2903 9.46086 16.501 9.96957 16.501 10.5V15.5C16.501 16.0304 16.2903 16.5391 15.9153 16.9142C15.5402 17.2893 15.0315 17.5 14.501 17.5H7.50104C6.97061 17.5 6.4619 17.2893 6.08683 16.9142C5.71176 16.5391 5.50104 16.0304 5.50104 15.5V13.43C5.82771 13.4767 6.16104 13.5 6.50104 13.5V15.5C6.50104 15.7652 6.6064 16.0196 6.79394 16.2071C6.98147 16.3946 7.23583 16.5 7.50104 16.5H14.501C14.7663 16.5 15.0206 16.3946 15.2082 16.2071C15.3957 16.0196 15.501 15.7652 15.501 15.5V12.309L11.225 14.447C11.1555 14.4818 11.0788 14.5 11.001 14.5C10.9233 14.5 10.8466 14.4818 10.777 14.447Z" fill="black"/>
</svg>
