<svg width="16" height="16" viewBox="0 0 16 16" fill="none" xmlns="http://www.w3.org/2000/svg">
<path d="M6 5C6 4.46957 6.21071 3.96086 6.58579 3.58579C6.96086 3.21071 7.46957 3 8 3C8.53043 3 9.03914 3.21071 9.41421 3.58579C9.78929 3.96086 10 4.46957 10 5C10 5.53043 9.78929 6.03914 9.41421 6.41421C9.03914 6.78929 8.53043 7 8 7C7.46957 7 6.96086 6.78929 6.58579 6.41421C6.21071 6.03914 6 5.53043 6 5ZM5.5 8H10.5C10.8978 8 11.2794 8.15804 11.5607 8.43934C11.842 8.72064 12 9.10218 12 9.5C12 10.616 11.541 11.51 10.788 12.115C10.047 12.71 9.053 13 8 13C6.947 13 5.953 12.71 5.212 12.115C4.46 11.51 4 10.616 4 9.5C4 9.10218 4.15804 8.72064 4.43934 8.43934C4.72064 8.15804 5.10218 8 5.5 8ZM8 0C5.87827 0 3.84344 0.842855 2.34315 2.34315C0.842855 3.84344 0 5.87827 0 8C0 10.1217 0.842855 12.1566 2.34315 13.6569C3.84344 15.1571 5.87827 16 8 16C10.1217 16 12.1566 15.1571 13.6569 13.6569C15.1571 12.1566 16 10.1217 16 8C16 5.87827 15.1571 3.84344 13.6569 2.34315C12.1566 0.842855 10.1217 0 8 0ZM1 8C1 7.08075 1.18106 6.1705 1.53284 5.32122C1.88463 4.47194 2.40024 3.70026 3.05025 3.05025C3.70026 2.40024 4.47194 1.88463 5.32122 1.53284C6.1705 1.18106 7.08075 1 8 1C8.91925 1 9.8295 1.18106 10.6788 1.53284C11.5281 1.88463 12.2997 2.40024 12.9497 3.05025C13.5998 3.70026 14.1154 4.47194 14.4672 5.32122C14.8189 6.1705 15 7.08075 15 8C15 9.85652 14.2625 11.637 12.9497 12.9497C11.637 14.2625 9.85652 15 8 15C6.14348 15 4.36301 14.2625 3.05025 12.9497C1.7375 11.637 1 9.85652 1 8Z" fill="black"/>
</svg>
