<svg width="25" height="24" viewBox="0 0 25 24" fill="none" xmlns="http://www.w3.org/2000/svg">
<path d="M22.3857 24L13.9857 15.6C13.3191 16.1333 12.5524 16.5556 11.6857 16.8667C10.8191 17.1778 9.89686 17.3333 8.91908 17.3333C6.49686 17.3333 4.44686 16.4944 2.76908 14.8167C1.0913 13.1389 0.252411 11.0889 0.252411 8.66667C0.252411 6.24444 1.0913 4.19444 2.76908 2.51667C4.44686 0.838889 6.49686 0 8.91908 0C11.3413 0 13.3913 0.838889 15.0691 2.51667C16.7469 4.19444 17.5857 6.24444 17.5857 8.66667C17.5857 9.64444 17.4302 10.5667 17.1191 11.4333C16.808 12.3 16.3857 13.0667 15.8524 13.7333L24.2524 22.1333L22.3857 24ZM8.91908 14.6667C10.5857 14.6667 12.0024 14.0833 13.1691 12.9167C14.3357 11.75 14.9191 10.3333 14.9191 8.66667C14.9191 7 14.3357 5.58333 13.1691 4.41667C12.0024 3.25 10.5857 2.66667 8.91908 2.66667C7.25241 2.66667 5.83574 3.25 4.66908 4.41667C3.50241 5.58333 2.91908 7 2.91908 8.66667C2.91908 10.3333 3.50241 11.75 4.66908 12.9167C5.83574 14.0833 7.25241 14.6667 8.91908 14.6667Z" 
fill="#fff"/>
</svg>
