<svg width="20" height="20" viewBox="0 0 20 20" fill="none" xmlns="http://www.w3.org/2000/svg">
<path d="M16.999 0H4.269C3.56719 0.000233904 2.88767 0.246509 2.34868 0.695976C1.80968 1.14544 1.44533 1.76965 1.319 2.46L0.0490002 9.46C-0.0301313 9.89244 -0.013255 10.337 0.0984349 10.7622C0.210125 11.1874 0.413899 11.5828 0.695336 11.9206C0.976774 12.2583 1.329 12.53 1.72708 12.7166C2.12517 12.9031 2.55938 12.9999 2.999 13H7.559L6.999 14.43C6.76607 15.0561 6.6885 15.7294 6.77294 16.3921C6.85738 17.0548 7.10131 17.6871 7.48381 18.2348C7.86632 18.7825 8.37597 19.2292 8.96906 19.5367C9.56215 19.8441 10.221 20.0031 10.889 20C11.0814 19.9996 11.2695 19.9437 11.4309 19.8391C11.5923 19.7344 11.7201 19.5854 11.799 19.41L14.649 13H16.999C17.7946 13 18.5577 12.6839 19.1203 12.1213C19.6829 11.5587 19.999 10.7956 19.999 10V3C19.999 2.20435 19.6829 1.44129 19.1203 0.87868C18.5577 0.316071 17.7946 0 16.999 0ZM12.999 11.79L10.279 17.91C10.0007 17.8258 9.74257 17.6855 9.52054 17.4978C9.29851 17.31 9.11727 17.0788 8.98798 16.8183C8.8587 16.5579 8.78411 16.2737 8.7688 15.9834C8.7535 15.693 8.79781 15.4026 8.899 15.13L9.429 13.7C9.54193 13.3977 9.58006 13.0727 9.54013 12.7525C9.50019 12.4323 9.38338 12.1265 9.19967 11.8613C9.01595 11.596 8.77079 11.3791 8.48509 11.2292C8.1994 11.0792 7.88166 11.0006 7.559 11H2.999C2.85209 11.0002 2.70693 10.9681 2.57385 10.9059C2.44076 10.8437 2.32302 10.7529 2.229 10.64C2.13267 10.5287 2.0621 10.3975 2.02234 10.2557C1.98259 10.114 1.97461 9.96518 1.999 9.82L3.269 2.82C3.3116 2.58704 3.43549 2.37676 3.61861 2.2266C3.80174 2.07644 4.03221 1.99614 4.269 2H12.999V11.79ZM17.999 10C17.999 10.2652 17.8936 10.5196 17.7061 10.7071C17.5186 10.8946 17.2642 11 16.999 11H14.999V2H16.999C17.2642 2 17.5186 2.10536 17.7061 2.29289C17.8936 2.48043 17.999 2.73478 17.999 3V10Z" fill="#FF6200"/>
</svg>
