<svg width="27" height="26" viewBox="0 0 27 26" fill="none" xmlns="http://www.w3.org/2000/svg">
<path d="M13.4941 22.25C10.2649 22.25 7.41031 20.65 5.74406 18.25C5.78281 15.75 10.9107 14.375 13.4941 14.375C16.0774 14.375 21.2053 15.75 21.2441 18.25C20.3903 19.4807 19.2368 20.4892 17.8853 21.1868C16.5338 21.8843 15.0258 22.2495 13.4941 22.25ZM13.4941 4.5C14.5218 4.5 15.5074 4.89509 16.2341 5.59835C16.9608 6.30161 17.3691 7.25544 17.3691 8.25C17.3691 9.24456 16.9608 10.1984 16.2341 10.9017C15.5074 11.6049 14.5218 12 13.4941 12C12.4663 12 11.4807 11.6049 10.754 10.9017C10.0273 10.1984 9.61906 9.24456 9.61906 8.25C9.61906 7.25544 10.0273 6.30161 10.754 5.59835C11.4807 4.89509 12.4663 4.5 13.4941 4.5ZM13.4941 0.75C11.7978 0.75 10.1182 1.07332 8.55106 1.70151C6.98394 2.32969 5.56002 3.25043 4.3606 4.41117C1.93825 6.75537 0.577393 9.93479 0.577393 13.25C0.577393 16.5652 1.93825 19.7446 4.3606 22.0888C5.56002 23.2496 6.98394 24.1703 8.55106 24.7985C10.1182 25.4267 11.7978 25.75 13.4941 25.75C16.9198 25.75 20.2052 24.433 22.6275 22.0888C25.0499 19.7446 26.4107 16.5652 26.4107 13.25C26.4107 6.3375 20.5982 0.75 13.4941 0.75Z" fill="black"/>
</svg>
