<svg width="22" height="23" viewBox="0 0 22 23" fill="none" xmlns="http://www.w3.org/2000/svg">
<path d="M3.125 0.5625C1.40137 0.5625 0 1.96387 0 3.6875V19.3125C0 21.0361 1.40137 22.4375 3.125 22.4375H18.75C20.4736 22.4375 21.875 21.0361 21.875 19.3125V3.6875C21.875 1.96387 20.4736 0.5625 18.75 0.5625H3.125ZM17.6318 4.66406L12.5635 10.4551L18.5254 18.3359H13.8574L10.2051 13.5557L6.02051 18.3359H3.70117L9.12109 12.1396L3.40332 4.66406H8.18848L11.4941 9.03418L15.3125 4.66406H17.6318ZM15.7861 16.9492L7.49023 5.97754H6.1084L14.4971 16.9492H15.7813H15.7861Z" fill="black"/>
</svg>
